<svg id="Capa_1" data-name="Capa 1" xmlns="http://www.w3.org/2000/svg" xmlns:xlink="http://www.w3.org/1999/xlink" viewBox="0 0 1085.12 1017.01"><defs><style>.cls-1{fill:none;}.cls-2{clip-path:url(#clip-path);}.cls-3{fill:#d74e90;}</style><clipPath id="clip-path" transform="translate(-472.06 -26.34)"><rect class="cls-1" x="471.73" y="25.73" width="1087.87" height="1017.86"/></clipPath></defs><g class="cls-2"><path class="cls-3" d="M497.76,709.64a51.17,51.17,0,0,1-17.66-36.11c-1.23-26.15-1.59-52.34-2.16-78.51-.57-26.52-1.2-53-2.43-79.54-1.21-26.18-3.35-52.39-3.44-78.6-.09-29.47.64-58.91,1.35-88.36q1-39.47,2.9-78.89c1.32-27.17,2.95-54.31,4.72-81.45,1.75-26.84,4-53.68,7.24-80.39,1.19-9.82,2.55-19.63,4.17-29.39a193,193,0,0,1,4.28-20.18,34.82,34.82,0,0,1,5.52-15.87,35.19,35.19,0,0,1,30.13-16,32.12,32.12,0,0,1,27.85,18,33.11,33.11,0,0,1,3.19,15.07c2.61,12.55,3.82,25.4,5.19,38.11s2.31,25.39,3.24,38.09c1.93,26.59,3.47,53.19,4.91,79.81Q579,256.15,581,296.87q1.89,38.47,3.43,77c1.16,29.23,2.14,58.42,1.28,87.67-.67,22.92-1.44,45.82-1.75,68.75,0,2.49,0,5,0,7.48-.13,25.65.3,51.32.86,77,.35,16.15.72,32.31,1.47,48.44a56,56,0,0,1-50,58.42,50.62,50.62,0,0,1-5.07.25A51.24,51.24,0,0,1,497.76,709.64Z" transform="translate(-472.06 -26.34)"/><path class="cls-3" d="M689.42,817.64a32,32,0,0,1-7.08-27.24,34.06,34.06,0,0,1,12.32-20c6.39-6.81,12.48-13.92,18.82-20.78,7.87-8.51,15.78-17,23.83-25.32,18.23-18.9,36.86-37.37,55.71-55.65,16.41-15.92,33.06-31.59,49.78-47.19,16.16-15.08,32.51-30,48.88-44.85q27.5-24.95,55.08-49.81,25.07-22.52,51.15-43.83c18.48-15.05,37.09-29.93,55.54-45,17.9-14.64,35.58-29.56,53.22-44.51q25.59-21.68,51-43.58t50.69-43.58c10.19-8.77,22.87-13.94,36.44-13.52a48.62,48.62,0,0,1,34.9,16.31,49.66,49.66,0,0,1,12,36.15c-1,13.47-7.36,27-17.65,35.82q-28.54,24.57-57,49.19-27,23.33-53.77,46.82-26.39,23.13-52.29,46.79c-17.06,15.53-33.94,31.25-51,46.8-17.35,15.87-35.56,30.82-53.69,45.79q-25,20.63-50.36,40.81Q923.69,682.92,891.06,708c-18.26,14-36.78,27.68-55.34,41.3Q809.07,768.85,782,787.84c-8.37,5.86-16.74,11.72-25.21,17.44-7.32,5-14.79,9.66-22.19,14.48A33.86,33.86,0,0,1,720,827.25a32.36,32.36,0,0,1-7.11.8A31.16,31.16,0,0,1,689.42,817.64Z" transform="translate(-472.06 -26.34)"/><path class="cls-3" d="M834.08,1041.87c-23.48-.48-46.91-1.61-70.38-2.48-6.47-.24-12.94-.47-19.42-.58a38.58,38.58,0,0,1-18.76,1.69,37.07,37.07,0,0,1-30.27-29.68c-2.89-15.47,4.13-31.56,17-40.45a40.16,40.16,0,0,1,18.75-6.9,36.79,36.79,0,0,1,7.57,0c21-3.27,42.18-5.75,63.32-7.86,24.3-2.42,48.63-4.35,73-6.14q33.79-2.47,67.65-3.79,8.43-.33,16.86-.64h-.1l.65,0-1.51.05,2.16-.07c1.48-.06,2.94-.12,4.4-.15l2-.07,9.64-.33,2.36-.08,1.7-.06,2.36-.08h.35c8.17-.29,16.35-.59,24.52-.85q33.44-1.21,66.87-2.67,35.1-1.54,70.19-3.26t70.43-3.46q23.78-1.17,47.53-2.37a48.35,48.35,0,0,1,16.93,1.63,42.3,42.3,0,0,1,15.28,8.36,43.19,43.19,0,0,1,14.81,30.29,46.82,46.82,0,0,1-11.25,32.85,47.3,47.3,0,0,1-14.17,11.24,42.13,42.13,0,0,1-16.56,4.91q-38.07,1.91-76.13,3.83-35.82,1.85-71.64,3.69-34.19,1.82-68.36,3.81-35.34,2.12-70.67,4.46l-15,1c-.55,0-1.11.09-1.67.11-19.66,1.29-39.34,2.5-59,3.11-18.3.57-36.63,1.11-55,1.11C845,1042,839.56,1042,834.08,1041.87Z" transform="translate(-472.06 -26.34)"/><path class="cls-3" d="M1495.69,1041.41a41.91,41.91,0,0,1-23-17.17,43.15,43.15,0,0,1-5.73-13,45.56,45.56,0,0,1-1.7-23.94,48.24,48.24,0,0,1,25-33.23c10.71-5.39,23.21-7,34.79-3.49A45.17,45.17,0,0,1,1549.75,969a47.11,47.11,0,0,1,5,40.41c-4.22,12-12.62,22.89-24.24,28.55a49.81,49.81,0,0,1-17.13,5.14c-1.41.14-2.82.21-4.22.21A49.54,49.54,0,0,1,1495.69,1041.41Z" transform="translate(-472.06 -26.34)"/></g></svg>