<svg id="Capa_1" data-name="Capa 1" xmlns="http://www.w3.org/2000/svg" xmlns:xlink="http://www.w3.org/1999/xlink" viewBox="0 0 1114.05 987"><defs><style>.cls-1{fill:none;}.cls-2{clip-path:url(#clip-path);}.cls-3{fill:#d74e90;}</style><clipPath id="clip-path" transform="translate(-402.76 -46.2)"><rect class="cls-1" x="401.52" y="45.89" width="1116.29" height="987.56"/></clipPath></defs><g class="cls-2"><path class="cls-3" d="M869.57,415.78c1-.08,2-.18,3.07-.31s2.15-.47,3.21-.74,1.87-.66,2.79-1,2-1,2.92-1.5c1.11-.72,2.19-1.47,3.26-2.25s2.07-1.82,3.06-2.77c.78-.88,1.54-1.76,2.28-2.67,1-1.42,1.92-2.86,2.81-4.33.86-1.65,1.66-3.32,2.42-5,1.1-2.92,2.06-5.87,2.92-8.87.9-3.78,1.63-7.58,2.22-11.43.65-5.46,1-10.93,1.13-16.44a252,252,0,0,0-1.5-25.76,248.55,248.55,0,0,0-4.84-26.07,238.74,238.74,0,0,0-7.85-24.06q-1.92-4.65-4.05-9.19l-.4.31a229.21,229.21,0,0,0-17.57,15.83c-3.84,4.06-7.51,8.24-10.94,12.63q-4.34,6-8.09,12.42c-2.62,4.81-5,9.72-7.13,14.76-2,5.23-3.84,10.52-5.39,15.92-1.2,4.83-2.19,9.71-2.94,14.64q-.59,5.36-.74,10.74c0,2.85.19,5.69.45,8.53q.55,3.76,1.39,7.48c.5,1.71,1,3.39,1.63,5.06s1.48,3.19,2.29,4.75,1.81,2.88,2.79,4.28,2.28,2.68,3.5,4,2.57,2.3,3.91,3.38c1.58,1.09,3.19,2.11,4.85,3.08s3.37,1.6,5.1,2.32c1.62.55,3.24,1.05,4.89,1.49s3.12.54,4.7.74C867,415.74,868.28,415.78,869.57,415.78Zm263.81,594.14a34,34,0,0,1-24.44-11.42,34.74,34.74,0,0,1-8.37-25.32,37.62,37.62,0,0,1,12.35-25.08c4.2-3.79,8.35-7.63,12.52-11.45,3-2.73,6-5.48,8.84-8.34,6.21-6.41,12.38-12.83,18.4-19.42,7.12-7.79,14.08-15.64,21-23.64,6.06-7,12.17-14,17.9-21.35l20.38-26.12c4.61-6.39,9.16-12.84,13.74-19.26l9.88-13.83c1.23-1.71,2.53-3.39,3.67-5.15q14.14-22,28.24-44,6.29-11.18,12.54-22.37l9.33-16.63c1.12-2,2.32-3.94,3.31-6q7.72-16,15.43-31.93l7.21-14.92c3.62-7.5,6.73-15.26,9.87-23l-1.6,3.91a604.35,604.35,0,0,0,23.16-68.3,453.41,453.41,0,0,0,10.22-49.22,333.48,333.48,0,0,0,2.73-36,267.58,267.58,0,0,0-1.58-27.58,253.05,253.05,0,0,0-4.9-26.47,279,279,0,0,0-9.52-29.35,300.72,300.72,0,0,0-15-31.19,335.44,335.44,0,0,0-22.41-33.85,368.45,368.45,0,0,0-30.14-34.24,322.48,322.48,0,0,0-30-25.56,298.47,298.47,0,0,0-72.89-39.79,387.7,387.7,0,0,0-43.91-13.21,358.3,358.3,0,0,0-40.53-6.6,363.8,363.8,0,0,0-41.11-1.07,417.77,417.77,0,0,0-46.83,4.48A385,385,0,0,0,959,236.15c-8.29,2.5-16.5,5.24-24.58,8.34q2.28,4.77,4.34,9.62a259.06,259.06,0,0,1,20.11,93c.54,16.72-.57,33.67-4.69,49.93a139.32,139.32,0,0,1-8.13,23.45,99.71,99.71,0,0,1-14,21.92A89.36,89.36,0,0,1,913.54,459a85.68,85.68,0,0,1-25.25,11.61c-16.58,4.66-34.48,3.71-50.77-1.69a97,97,0,0,1-42.19-28.09C784,428,777.2,412,773.69,395.35c-3.44-16.33-2.64-33.33,0-49.7,2.57-16.18,7.89-31.86,14.53-46.79,12.71-28.52,33.88-52.62,58.14-71.93,1.55-1.24,3.1-2.45,4.67-3.65q-8.22-9.66-17.22-18.65A318.42,318.42,0,0,0,804,179.14a348.43,348.43,0,0,0-36.39-23A341.1,341.1,0,0,0,733.1,140L713,132l-28.57-9.54c-4.75-1.58-9.69-2.71-14.51-4.06l-14.7-4.1-26.3-5.72c-4.38-.95-9-1.33-13.41-2l-14.44-2.15-24.32-2c-2.62-.21-5.29-.17-7.94-.13-1.3,0-2.6,0-3.88,0l-12.68-.09-20.46,1c-3.32.15-6.65.67-9.94,1l-10.78,1.11-15.72,2.84c-2.77.5-5.52,1.36-8.25,2-2.45.61-4.91,1.17-7.33,1.86-12,3.4-24,7-36.11,10.28a30.41,30.41,0,0,1-20.62,1.34,28.74,28.74,0,0,1-18.85-18.5,30.77,30.77,0,0,1,1.66-22.75,32.14,32.14,0,0,1,7.43-9.88,33.79,33.79,0,0,1,14-7.27c3.08-.87,6.23-1.42,9.32-2.21l11.06-2.81q6.93-1.76,13.89-3.4c10.78-2.55,21.6-4.79,32.57-6.41,4.88-.72,9.78-1.66,14.7-2.05L528,47c6-.47,12.1-.38,18.11-.55,4.19-.11,8.38-.27,12.58-.19l20.39.43c4.26.09,8.52.66,12.76,1l10.78,1c2.86.25,5.85.36,8.68.8l16.15,2.47c4.32.66,8.75,1.1,13,2l19,4.12c4.73,1,9.54,1.92,14.21,3.21l19.52,5.36c3.59,1,7.2,1.88,10.73,3L723.23,76c4.48,1.46,8.93,2.89,13.32,4.58l18.84,7.29c6.56,2.53,13,5.14,19.4,8.07A409.26,409.26,0,0,1,816,117.74a334.06,334.06,0,0,1,71.93,59q7.26,7.82,14,16.19c9.36-4.15,19-7.77,28.66-11a408.72,408.72,0,0,1,94.63-19.34,377.28,377.28,0,0,1,187.64,31c29,12.73,56,29.65,80.76,49.33,24.47,19.45,45.75,42.67,64.58,67.55a332.2,332.2,0,0,1,44.55,79.93,275.39,275.39,0,0,1,18.46,92.5c.86,32.4-3.94,64.67-11.27,96.15a612.55,612.55,0,0,1-29,90.62c-3,7.38-6,14.76-9.34,22q-4.29,9.09-8.57,18.2l-9.34,19.85c-1.25,2.67-2.38,5.44-3.79,8q-8.68,15.88-17.39,31.75c-4.41,8.07-8.66,16.25-13.53,24q-11.07,17.7-22.13,35.4c-4.38,7-9.15,13.71-13.86,20.49-6.83,9.84-13.46,19.86-20.67,29.42q-12.7,16.85-25.4,33.68l1.65-2.2c-6.58,8.69-13.76,17-20.68,25.37-5.79,7.05-11.74,13.94-17.66,20.88-13,15.28-26.41,30.4-41.3,43.92a36.73,36.73,0,0,1-24.46,9.49Z" transform="translate(-402.76 -46.2)"/><path class="cls-3" d="M1117.34,1020.54a38.33,38.33,0,0,1-20.78-15.48,38.86,38.86,0,0,1-5.73-14.26,37,37,0,0,1,.12-15.44c1.53-5.94,3-12,4-18,1.78-20.61,1.11-41.4,2-62.06.45-10.77,1-21.53,1.7-32.29.73-11.07,1.72-22.16,2.24-33.25s.94-22.13,1.19-33.22c-.07-11-.17-21.94-.45-32.93-.27-10.32-.77-20.63-1.33-30.94-.23-4.34-.4-8.68-.81-13-.48-5-1-10.08-1.43-15.12-1-7.12-2.27-14.18-4-21.17a225,225,0,0,0-7.37-23.16l-.42-1a25,25,0,0,1-3.16-5,27.08,27.08,0,0,1,2-26.25,27.87,27.87,0,0,1,20.38-12.49,25.71,25.71,0,0,1,13.2,2.17,27,27,0,0,1,10.45,9,57.5,57.5,0,0,1,5.68,10.5c1.53,3.33,2.91,6.76,4.22,10.19l3.72,9.7c2,5.35,3.81,10.82,5.36,16.33,2,7,3.88,14.19,5.15,21.38,2.09,11.85,4,23.68,5.83,35.58,3.29,21.92,6.45,44,8.43,66.05,1,10.82,2,21.67,2.28,32.54q.5,17.7.92,35.42c.25,10.95.76,21.87,1.32,32.81.54,10.77,1.66,21.53,2.36,32.29.53,8.12,1.18,16.3,1.21,24.43,0,3.87,0,7.72-.2,11.58-.15,2.53-.57,5-.91,7.53-.16,1.11-.23,2.28-.47,3.38-1.72,7.6-4,15-7.75,21.88a42.94,42.94,0,0,1-18.81,19.36,41.44,41.44,0,0,1-18.91,4.61A38.94,38.94,0,0,1,1117.34,1020.54Z" transform="translate(-402.76 -46.2)"/><path class="cls-3" d="M1108.17,1024.62a36.36,36.36,0,0,1-12.47-25.49,39.86,39.86,0,0,1,9.47-27.63c8.22-10,18.26-18.28,27.89-26.81,3.94-3.48,7.62-7.3,11.39-11,4.41-4.25,8.75-8.58,13.13-12.87a224,224,0,0,1,33-26.83c10.69-7.09,21.93-13.28,33.25-19.28,10.44-5.53,20.88-11,31.38-16.45,4.29-2.21,8.53-4.57,12.91-6.6l19.22-8.92c10.93-5.07,22.28-9.16,33.52-13.48,4.89-1.88,10.06-3.2,15-4.77,5.62-1.77,11.22-3.66,16.91-5.19,10.81-2.91,21.58-6,32.52-8.4l19.18-4.19c5.56-1.22,11.3-1.87,16.92-2.79,11.59-1.91,23.22-3.42,34.86-5l6.86-.93c2.4-.45,4.76-.92,7.12-1.51.68-.22,1.35-.45,2-.7a32.75,32.75,0,0,1,44.48,33.23,36.24,36.24,0,0,1-15.51,27,35.34,35.34,0,0,1-16.56,6.09,31.26,31.26,0,0,1-5.2.08c-3.19.36-6.38.95-9.53,1.4-4.06.58-8.15,1-12.22,1.56-7,.89-13.92,1.93-20.88,2.86l-15.49,2.71c-4.25.75-8.41,1.72-12.63,2.71-6,1.41-12,2.8-18,4.23-5.64,1.34-11.21,3.26-16.79,4.89l-6.25,1.82c-8.57,2.92-17.13,5.9-25.69,8.87-4.1,1.41-8.09,3.39-12.08,5.07-3.37,1.42-6.73,2.85-10.1,4.26-8.72,4.3-17.54,8.5-26,13.2-10.44,5.77-20.88,11.53-31.28,17.38-7.5,4.21-15,8.39-22.44,12.76a214.1,214.1,0,0,0-18.16,12.43c-5.14,4.23-9.94,8.84-14.69,13.49q-10.74,11.32-21.5,22.63c-7.81,8.27-16,16.22-24,24.3l-.6.64a43.21,43.21,0,0,1-11.92,9.46,38.49,38.49,0,0,1-13.93,4.13,35.56,35.56,0,0,1-3.57.18A36.16,36.16,0,0,1,1108.17,1024.62Z" transform="translate(-402.76 -46.2)"/></g></svg>