<svg id="Capa_1" data-name="Capa 1" xmlns="http://www.w3.org/2000/svg" xmlns:xlink="http://www.w3.org/1999/xlink" viewBox="0 0 882.22 886.08"><defs><style>.cls-1{fill:none;}.cls-2{clip-path:url(#clip-path);}.cls-3{fill:#fff;}</style><clipPath id="clip-path" transform="translate(-98.72 -517.26)"><rect class="cls-1" x="98.42" y="516.84" width="883.43" height="886.75"/></clipPath></defs><g class="cls-2"><path class="cls-3" d="M525.54,1372.88a519.7,519.7,0,0,0,62.14-6.06,542,542,0,0,0,63.93-14.57,473.3,473.3,0,0,0,52.78-19.34,459.31,459.31,0,0,0,48.8-25.21,391.37,391.37,0,0,0,79.59-63,517.38,517.38,0,0,0,40.38-47.45,426.57,426.57,0,0,0,28.22-43,373.18,373.18,0,0,0,19.38-39.88,383.85,383.85,0,0,0,14-42.15,511.11,511.11,0,0,0,11.26-59,615,615,0,0,0,5.16-74.15c.06-14.09-.31-28.17-1.23-42.24-1-14.88-2.52-29.74-4.27-44.55a468.92,468.92,0,0,0-9.82-55.94,288.52,288.52,0,0,0-10.54-31.87,255.47,255.47,0,0,0-13.12-27.12c-2.84-5-5.81-9.86-8.82-14.73-2.59-4.17-5.1-8.44-7.87-12.5q-3-4.4-6-8.78-9.74-14.23-19.45-28.49-10.5-15.36-21-30.69a9.3,9.3,0,0,1-2.14,7.57c-3.1,3.61-9.1,4.63-12.78,1.25-1.88-1.72-3.76-3.34-5.78-4.87-12.2-8.87-25.27-16.41-38.49-23.64a795.22,795.22,0,0,0-96.23-44l.89.33-1-.35-.24-.1.24.09a645.71,645.71,0,0,0-79.82-24.38,530,530,0,0,0-65.93-10.66A474.85,474.85,0,0,0,490,541.65a412.76,412.76,0,0,0-48.75,4.77A431.72,431.72,0,0,0,391,557.85a458.06,458.06,0,0,0-51.1,18.85,449.32,449.32,0,0,0-47.76,24.7,295.72,295.72,0,0,0-27.65,19.08,269.34,269.34,0,0,0-23.17,20.72,316.71,316.71,0,0,0-24.1,28.5,392.53,392.53,0,0,0-25.82,39.73,453.08,453.08,0,0,0-24,49.57,518,518,0,0,0-19.51,58.35,666.62,666.62,0,0,0-16.05,79.9A536.75,536.75,0,0,0,127,962.07a406.6,406.6,0,0,0,2.54,48,420.78,420.78,0,0,0,9.28,49.79,478.62,478.62,0,0,0,18.63,57c4.76,11.77,9.94,23.36,15.33,34.86,5.56,11.87,11.41,23.61,17.81,35a410.77,410.77,0,0,0,29.51,44.19,346.72,346.72,0,0,0,29.37,33.55,343.38,343.38,0,0,0,33.75,28.71,446.17,446.17,0,0,0,49.25,31.47,450.89,450.89,0,0,0,53.87,25.07,394.61,394.61,0,0,0,47,14.51,375.76,375.76,0,0,0,45.48,7.31A393.83,393.83,0,0,0,525.54,1372.88Zm-22.37,30.39a387.66,387.66,0,0,1-41.14-3.15,373.56,373.56,0,0,1-79.14-19.26,465.36,465.36,0,0,1-73.65-34.32,417.66,417.66,0,0,1-66.51-46.87,318.94,318.94,0,0,1-28.55-28.29A426.2,426.2,0,0,1,167,1205.65c-6.72-11.71-12.79-23.77-18.55-36-11.73-24.86-22.21-50.24-30.4-76.49A436.66,436.66,0,0,1,101,1011.64a387.42,387.42,0,0,1-2.23-41.43q-.09-20.87,1.59-41.67c1.14-13.88,2.91-27.72,4.92-41.5s4.57-27.56,7.49-41.22A591.29,591.29,0,0,1,135,767a469.71,469.71,0,0,1,34.4-73.9,364.79,364.79,0,0,1,47-64.74,275.93,275.93,0,0,1,62-49.86A450.45,450.45,0,0,1,351,543.74,420.57,420.57,0,0,1,472.18,518c14-.84,28-.86,42-.34C569.43,519.67,624,532.08,676,550.48a817.85,817.85,0,0,1,76.3,31.69q18.6,8.77,36.71,18.49c11.89,6.36,23.65,13,35.07,20.19a161.66,161.66,0,0,1,20.17,14.4l-12.13-17.63c-4.66-6.75-2.09-16.34,4.43-20.85a15.27,15.27,0,0,1,11-2.54,14.51,14.51,0,0,1,9.54,6.16c13.63,19.27,27.25,38.55,40.67,58l21.37,30.92c3.83,5.54,7.35,11.29,10.9,17a308.25,308.25,0,0,1,19.55,35.77,285.66,285.66,0,0,1,13.77,38c3.84,13.33,6.33,27.05,8.57,40.72s3.73,27.4,5.15,41.15c1.45,14,2.64,28.1,3.27,42.21a648.6,648.6,0,0,1-1.85,84.22c-1.18,13.93-3,27.8-5.07,41.63-2.06,13.51-4.57,27-7.76,40.26a382.56,382.56,0,0,1-27.45,77.3,419.56,419.56,0,0,1-42.77,69.25,499.08,499.08,0,0,1-53.56,60.72,418,418,0,0,1-63.56,49.82,467.46,467.46,0,0,1-72.4,37.59,494.72,494.72,0,0,1-78,24.7,534.35,534.35,0,0,1-83,12.48c-11.21.8-22.46,1.23-33.7,1.23Q507.21,1403.34,503.17,1403.27Z" transform="translate(-98.72 -517.26)"/><path class="cls-3" d="M412.33,954.75c-7.12-22.07-13.48-44.4-19.67-66.75-2.07-7.49-4.11-15-6-22.5L379.4,837c.07.26.13.53.2.79s.11.43.16.65l0-.12a1.05,1.05,0,0,1,0,.19l-.06-.24c-1.22-4.66-2.21-9.38-3.3-14.07q-2.66-11.4-5.32-22.81-3.37-14.5-6.73-29c-2.4-10.31-4.78-20.62-7.38-30.88-1-3.91-2.06-7.8-3.21-11.67-.87-3-1.73-5.93-2.69-8.86a10.72,10.72,0,0,1-6.93-9.51,25.25,25.25,0,0,1,.38-6.14,12.67,12.67,0,0,1,11.12-9.95c9.69-.94,13.8,9.85,16.4,17.25,4.26,12.14,7.59,24.64,10.7,37.12s6.29,25.19,9.43,37.78q5.32,21.3,10.73,42.57c5.74,20.8,11.32,41.65,18,62.17,5.77,17.67,11.63,35.32,17.44,53,2.36,7.16-1.81,15.14-8.8,17.69a13.34,13.34,0,0,1-4.63.82A13.15,13.15,0,0,1,412.33,954.75Z" transform="translate(-98.72 -517.26)"/><path class="cls-3" d="M576.52,911.74c-7.12-22.2-12.87-44.83-18.77-67.38s-11.66-45.06-17.44-67.6c-3.93-15.35-7.78-30.71-11.65-46.07-2.31-9.07-4.51-18.17-6.77-27.25-.67-2.7-1.32-5.39-1.94-8.09-1.08-4.77-2.26-9.52-3.15-14.33a10.48,10.48,0,0,1-.52-3c0-.18,0-.36,0-.55A13.22,13.22,0,0,1,526.4,664a12,12,0,0,1,14.49,9.26c.06.22.11.45.17.68a9.08,9.08,0,0,1,.24,1.49c1.08,5.47,2.5,10.89,3.88,16.29q9.06,34.2,18.33,68.34c.59,2.18,1.2,4.36,1.75,6.56-.14-.55-.28-1.09-.41-1.64,3.37,11.85,6.61,23.74,9.92,35.61,2.88,10.35,6,20.63,9,30.94,5.82,19.94,12.23,39.73,18.67,59.47q1.64,5,3.31,10c2.7,8-2.07,17-9.88,19.86a15.14,15.14,0,0,1-5.19.91A14.72,14.72,0,0,1,576.52,911.74Z" transform="translate(-98.72 -517.26)"/><path class="cls-3" d="M526.77,1214.9c-8.27-1.16-16.43-3-24.55-4.9-7.76-1.86-15.4-4.2-22.94-6.82-30.57-10.64-59.73-25.62-85.53-45.21a260.7,260.7,0,0,1-34.55-31.78c-5.33-5.84-10.29-12-15.14-18.23-5-6.47-10-13-14.72-19.71-8.38-11.88-16.44-24-24.59-36q-3.08-4.53-6.19-9c-1.6-2.32-3.16-4.69-4.76-7a11.88,11.88,0,0,1-3.38-3.36c-2.5-3.79-2.42-8.29-.7-12.35l0,0a12.82,12.82,0,0,1,10.42-7.78,11.89,11.89,0,0,1,6.06,1,11.06,11.06,0,0,1,3.79,2.89l0,0a17.26,17.26,0,0,1,1.91,2.75c4.67,6.74,9.48,13.39,14.2,20.09,9.2,13,18.29,26.17,27.93,38.87a334.83,334.83,0,0,0,28,32.62,265.3,265.3,0,0,0,25.9,22.29,258.42,258.42,0,0,0,27.83,17.56,302.89,302.89,0,0,0,35,16,291.05,291.05,0,0,0,34.49,10.63,237.57,237.57,0,0,0,27.53,4.54,156.36,156.36,0,0,0,17.45.56,161.31,161.31,0,0,0,17-1.61c4-.7,7.91-1.57,11.79-2.65a127.69,127.69,0,0,0,12-4.42,136.89,136.89,0,0,0,12.41-6.37,122.53,122.53,0,0,0,10.61-7.46,196.79,196.79,0,0,0,16.33-14.61A255,255,0,0,0,649,1123.81a179.4,179.4,0,0,0,10.54-16.09,161.57,161.57,0,0,0,7.69-15.9,267,267,0,0,0,9.32-28.22c1.93-7.46,3.5-15,5.18-22.53.51-2.28.84-4.6,1.24-6.9.59-3.46,1.2-6.92,1.77-10.38s.88-6.9,1.33-10.34c.74-7,1.4-14.07,2.26-21.08,1-8,2.4-16,3.59-24A21.91,21.91,0,0,1,699,956a22.16,22.16,0,0,1,15.4-5.71,20.51,20.51,0,0,1,14.75,6.89,21.42,21.42,0,0,1,5,15.27c-.42,10.89-.78,21.73-2.12,32.56-.78,6.26-1.64,12.52-2.63,18.75-.9,5.7-2,11.33-3.08,17-1,5.12-2.2,10.14-3.46,15.21-2.35,9.54-4.8,19-7.81,28.37a202.2,202.2,0,0,1-21,45.93c-8.92,14.13-20,26.5-31.86,38.22a195.27,195.27,0,0,1-38.51,29.75,137.47,137.47,0,0,1-22.32,10.2,135.61,135.61,0,0,1-25.16,6.43,154.2,154.2,0,0,1-24.2,1.86A182.5,182.5,0,0,1,526.77,1214.9Z" transform="translate(-98.72 -517.26)"/></g></svg>